#!OML:ASF E:\VariousWalksJay\Project 1\Capture day 1\Session 1\Actor2.ASF
:FULLY-SPECIFIED
:DEGREES
814
root -3.52167 15.9898 23.7252 22.0244 -47.7912 -3.93157
lowerback 21.1112 -3.85244 4.714
upperback 15.6002 -4.93149 -4.37538
thorax 4.66152 -2.14111 -6.58333
lowerneck 1.06316 3.75584 4.86405
upperneck -8.89653 5.03277 -2.63708
head -2.8354 2.43164 -1.82846
rclavicle -1.59028e-015 3.81667e-014
rhumerus -43.351 27.6569 -93.7699
rradius 98.5483
rwrist 15.6659
rhand -41.4532 3.87593
rfingers 7.12502
rthumb -14.3684 -25.6068
lclavicle -1.59028e-015 3.81667e-014
lhumerus 27.7161 -33.4065 58.4967
lradius 90.2212
lwrist 46.1929
lhand -39.8561 6.11163
lfingers 7.12502
lthumb -12.8291 35.6974
rfemur -59.9662 6.13741 27.6593
rtibia 43.7273
rfoot -5.13937 -6.02877
rtoes 3.0565
lfemur -17.0887 9.79128 -25.0769
ltibia 53.6596
lfoot -15.631 -3.79801
ltoes -24.8337
815
root -3.59853 16.0115 23.8072 22.3567 -47.8506 -4.08
lowerback 21.0828 -3.89313 4.67743
upperback 15.539 -4.98556 -4.2893
thorax 4.60431 -2.17794 -6.45469
lowerneck 1.18003 3.82681 4.63227
upperneck -8.9913 5.12179 -2.69388
head -2.889 2.48554 -1.81457
rclavicle -7.95139e-015 -1.59028e-015
rhumerus -43.4878 27.924 -93.7927
rradius 98.3951
rwrist 15.6689
rhand -41.5583 4.02905
rfingers 7.12502
rthumb -14.4696 -25.4465
lclavicle -7.95139e-015 -1.59028e-015
lhumerus 27.1986 -33.2437 59.0385
lradius 90.306
lwrist 45.957
lhand -39.9257 5.96848
lfingers 7.12502
lthumb -12.8962 35.55
rfemur -59.8734 6.20817 27.7275
rtibia 43.945
rfoot -5.49525 -5.93755
rtoes 3.36275
lfemur -16.9645 9.76157 -24.9404
ltibia 53.4601
lfoot -14.5875 -3.92312
ltoes -24.7233
816
root -3.67284 16.034 23.887 22.6632 -47.9274 -4.19062
lowerback 21.0861 -3.95732 4.55895
upperback 15.4665 -5.07986 -4.18571
thorax 4.51843 -2.24332 -6.24992
lowerneck 1.30189 3.9377 4.28167
upperneck -9.07966 5.26101 -2.73149
head -2.94275 2.56836 -1.77495
rclavicle -2.38542e-014 -3.65764e-014
rhumerus -43.5937 28.3587 -93.779
rradius 98.2338
rwrist 15.6526
rhand -41.6697 4.16809
rfingers 7.12502
rthumb -14.5769 -25.2997
lclavicle -2.38542e-014 -3.65764e-014
lhumerus 26.5954 -32.9476 59.6523
lradius 90.382
lwrist 45.7354
lhand -39.9949 5.79935
lfingers 7.12502
lthumb -12.9629 35.3767
rfemur -59.7742 6.27771 27.7614
rtibia 44.1293
rfoot -5.86584 -5.83549
rtoes 3.58513
lfemur -16.8967 9.75304 -24.8295
ltibia 53.3261
lfoot -13.4541 -4.07512
ltoes -24.6533
817
root -3.74453 16.0573 23.9644 22.9418 -48.0136 -4.26143
lowerback 21.1017 -3.98098 4.49423
upperback 15.4139 -5.11594 -4.13564
thorax 4.45189 -2.27149 -6.14662
lowerneck 1.35264 4.00357 4.09916
upperneck -9.14053 5.3426 -2.762
head -2.97311 2.61633 -1.75826
rclavicle 4.6118e-014 -2.06736e-014
rhumerus -43.6298 28.5999 -93.8047
rradius 98.0597
rwrist 15.6536
rhand -41.7853 4.30135
rfingers 7.12502
rthumb -14.6883 -25.1583
lclavicle 4.6118e-014 -2.06736e-014
lhumerus 26.1852 -32.7754 60.0871
lradius 90.4469
lwrist 45.5762
lhand -40.0538 5.64116
lfingers 7.12502
lthumb -13.0196 35.2149
rfemur -59.6726 6.34076 27.761
rtibia 44.2856
rfoot -6.24467 -5.72592
rtoes 3.73069
lfemur -16.897 9.76568 -24.7408
ltibia 53.2757
lfoot -12.2279 -4.25329
ltoes -24.6014
818
root -3.8137 16.0812 24.0396 23.1971 -48.0999 -4.30517
lowerback 21.138 -3.9884 4.4563
upperback 15.3723 -5.12763 -4.11396
thorax 4.38793 -2.28365 -6.09391
lowerneck 1.36045 4.04683 3.99643
upperneck -9.18214 5.39552 -2.78401
head -2.98853 2.6469 -1.75016
rclavicle -2.70347e-014 1.90833e-014
rhumerus -43.6093 28.7564 -93.8446
rradius 97.8793
rwrist 15.6509
rhand -41.8895 4.40629
rfingers 7.12502
rthumb -14.7887 -25.0461
lclavicle -2.70347e-014 1.90833e-014
lhumerus 25.8886 -32.6552 60.4135
lradius 90.4959
lwrist 45.4635
lhand -40.1105 5.48187
lfingers 7.12502
lthumb -13.0743 35.0521
rfemur -59.5655 6.39522 27.7368
rtibia 44.4168
rfoot -6.62853 -5.61297
rtoes 3.80017
lfemur -16.9731 9.80642 -24.6606
ltibia 53.3287
lfoot -10.9167 -4.45196
ltoes -24.5963
819
root -3.88036 16.1053 24.1125 23.4321 -48.1809 -4.32125
lowerback 21.1984 -4.02898 4.35908
upperback 15.325 -5.18895 -4.07233
thorax 4.30349 -2.3269 -5.97407
lowerneck 1.37582 4.12589 3.76883
upperneck -9.23005 5.49405 -2.78025
head -3.0095 2.70379 -1.71345
rclavicle -3.81667e-014 -3.02153e-014
rhumerus -43.5497 29.0819 -93.8426
rradius 97.6976
rwrist 15.6068
rhand -41.9758 4.49553
rfingers 7.12502
rthumb -14.8718 -24.9507
lclavicle -3.81667e-014 -3.02153e-014
lhumerus 25.5422 -32.4033 60.7765
lradius 90.5228
lwrist 45.3623
lhand -40.1586 5.3344
lfingers 7.12502
lthumb -13.1207 34.9016
rfemur -59.4592 6.43588 27.691
rtibia 44.5261
rfoot -7.01245 -5.49508
rtoes 3.79747
lfemur -17.1431 9.87617 -24.5888
ltibia 53.5089
lfoot -9.55195 -4.66837
ltoes -24.5827
